<svg width="256" height="256" viewBox="0 0 256 256" fill="none" xmlns="http://www.w3.org/2000/svg">
<rect width="256" height="256" rx="10" fill="white"/>
<circle cx="127.409" cy="129.596" r="104.353" fill="#F6E7E8"/>
<path d="M142.302 232.999L140.992 223.643C165.364 220.212 187.528 207.666 203.013 188.537C218.498 169.407 226.153 145.116 224.434 120.565C222.714 96.0129 211.748 73.0267 193.747 56.2425C175.746 39.4583 152.049 30.125 127.438 30.125C102.826 30.125 79.1295 39.4583 61.1286 56.2425C43.1276 73.0267 32.1613 96.0129 30.4416 120.565C28.722 145.116 36.3768 169.407 51.8622 188.537C67.3476 207.666 89.5113 220.212 113.883 223.643L112.596 232.999C85.879 229.239 61.5815 215.487 44.6047 194.517C27.628 173.547 19.2354 146.919 21.1198 120.004C23.0043 93.0897 35.0254 67.891 54.7587 49.4911C74.4919 31.0912 100.469 20.8594 127.449 20.8594C154.43 20.8594 180.407 31.0912 200.14 49.4911C219.873 67.891 231.894 93.0897 233.779 120.004C235.663 146.919 227.271 173.547 210.294 194.517C193.317 215.487 169.02 229.239 142.302 232.999Z" fill="#DC3232"/>
<path d="M154.91 161.005H99.9896C96.2919 160.991 92.7359 159.581 90.0338 157.056C87.3317 154.532 85.6828 151.08 85.4175 147.392L80.9967 82.203C80.8587 80.2085 81.1326 78.2068 81.8014 76.3226C82.4702 74.4385 83.5196 72.7121 84.8842 71.251C86.2489 69.7898 87.8996 68.625 89.7337 67.8292C91.5679 67.0334 93.5461 66.6234 95.5455 66.625H159.354C161.354 66.6234 163.332 67.0334 165.166 67.8292C167 68.625 168.651 69.7898 170.016 71.251C171.38 72.7121 172.43 74.4385 173.098 76.3226C173.767 78.2068 174.041 80.2085 173.903 82.203L169.482 147.392C169.217 151.08 167.568 154.532 164.866 157.056C162.164 159.581 158.608 160.991 154.91 161.005ZM95.5455 75.9811C94.8261 75.9785 94.114 76.1246 93.4538 76.4104C92.7937 76.6962 92.1998 77.1155 91.7094 77.6419C91.2195 78.1654 90.8437 78.7851 90.6062 79.4616C90.3686 80.1381 90.2743 80.8566 90.3294 81.5715L94.7502 146.76C94.85 148.084 95.4444 149.322 96.4152 150.228C97.3859 151.134 98.662 151.641 99.9896 151.649H154.91C156.235 151.641 157.509 151.132 158.476 150.226C159.443 149.32 160.032 148.082 160.126 146.76L164.57 81.5715C164.618 80.8564 164.519 80.1391 164.279 79.464C164.039 78.7888 163.662 78.1702 163.174 77.6462C162.685 77.1222 162.093 76.7041 161.437 76.4177C160.78 76.1313 160.071 75.9827 159.354 75.9811H95.5455Z" fill="#DC3232"/>
<path d="M109.228 139.741C107.987 139.741 106.797 139.248 105.92 138.37C105.043 137.493 104.55 136.303 104.55 135.062V88.9134C104.55 87.6727 105.043 86.4829 105.92 85.6056C106.797 84.7283 107.987 84.2354 109.228 84.2354C110.469 84.2354 111.658 84.7283 112.536 85.6056C113.413 86.4829 113.906 87.6727 113.906 88.9134V134.992C113.915 135.613 113.801 136.229 113.57 136.804C113.339 137.38 112.996 137.904 112.561 138.346C112.125 138.788 111.607 139.138 111.034 139.378C110.462 139.617 109.848 139.741 109.228 139.741Z" fill="#DC3232"/>
<path d="M127.451 142.221C126.21 142.221 125.02 141.728 124.143 140.851C123.265 139.974 122.772 138.784 122.772 137.543V86.5755C122.772 85.3348 123.265 84.145 124.143 83.2677C125.02 82.3904 126.21 81.8975 127.451 81.8975C128.691 81.8975 129.881 82.3904 130.758 83.2677C131.636 84.145 132.129 85.3348 132.129 86.5755V137.613C132.11 138.842 131.609 140.014 130.734 140.876C129.859 141.738 128.679 142.221 127.451 142.221Z" fill="#DC3232"/>
<path d="M145.577 139.741C144.337 139.741 143.147 139.248 142.27 138.37C141.392 137.493 140.899 136.303 140.899 135.062V88.9134C140.899 87.6727 141.392 86.4829 142.27 85.6056C143.147 84.7283 144.337 84.2354 145.577 84.2354C146.818 84.2354 148.008 84.7283 148.885 85.6056C149.763 86.4829 150.256 87.6727 150.256 88.9134V134.992C150.265 135.613 150.151 136.229 149.92 136.804C149.689 137.38 149.346 137.904 148.91 138.346C148.475 138.788 147.956 139.138 147.384 139.378C146.812 139.617 146.198 139.741 145.577 139.741Z" fill="#DC3232"/>
<path d="M141.647 233.047C140.406 233.047 139.217 232.555 138.339 231.677C137.462 230.8 136.969 229.61 136.969 228.369V198.851C136.963 197.494 136.421 196.195 135.462 195.235C134.503 194.276 133.203 193.734 131.847 193.728H123.052C121.695 193.734 120.396 194.276 119.437 195.235C118.477 196.195 117.936 197.494 117.929 198.851V228.346C117.929 229.587 117.437 230.777 116.559 231.654C115.682 232.531 114.492 233.024 113.251 233.024C112.011 233.024 110.821 232.531 109.943 231.654C109.066 230.777 108.573 229.587 108.573 228.346V198.851C108.573 195.011 110.099 191.328 112.814 188.613C115.529 185.897 119.212 184.372 123.052 184.372H131.847C135.687 184.372 139.369 185.897 142.085 188.613C144.8 191.328 146.325 195.011 146.325 198.851V228.346C146.328 228.962 146.21 229.573 145.976 230.143C145.742 230.714 145.398 231.232 144.963 231.669C144.529 232.106 144.012 232.452 143.443 232.689C142.874 232.926 142.263 233.047 141.647 233.047Z" fill="#DC3232"/>
<path d="M127.451 193.75C126.21 193.75 125.02 193.257 124.143 192.38C123.265 191.503 122.772 190.313 122.772 189.072V159.413C122.772 158.173 123.265 156.983 124.143 156.105C125.02 155.228 126.21 154.735 127.451 154.735C128.691 154.735 129.881 155.228 130.758 156.105C131.636 156.983 132.129 158.173 132.129 159.413V189.072C132.129 190.313 131.636 191.503 130.758 192.38C129.881 193.257 128.691 193.75 127.451 193.75Z" fill="#DC3232"/>
</svg>
