<svg width="284" height="284" viewBox="0 0 284 284" fill="none" xmlns="http://www.w3.org/2000/svg">
<mask id="mask0_5_78" style="mask-type:alpha" maskUnits="userSpaceOnUse" x="0" y="0" width="284" height="284">
<circle cx="142" cy="142" r="142" fill="#D9D9D9"/>
</mask>
<g mask="url(#mask0_5_78)">
<rect x="-8" y="-8" width="300" height="300" rx="10" fill="white"/>
<circle cx="141.307" cy="143.87" r="122.288" fill="#F6E7E8"/>
<path d="M158.76 265.045L157.225 254.081C185.786 250.06 211.759 235.359 229.906 212.941C248.053 190.523 257.023 162.058 255.008 133.287C252.993 104.515 240.142 77.5781 219.047 57.9091C197.952 38.2401 170.183 27.3026 141.341 27.3026C112.499 27.3026 84.7298 38.2401 63.6349 57.9091C42.54 77.5781 29.6889 104.515 27.6737 133.287C25.6584 162.058 34.6289 190.523 52.7759 212.941C70.9229 235.359 96.896 250.06 125.456 254.081L123.949 265.045C92.6393 260.64 64.1656 244.524 44.271 219.95C24.3764 195.375 14.5414 164.171 16.7497 132.63C18.958 101.089 33.0453 71.5596 56.1702 49.9972C79.295 28.4349 109.737 16.4444 141.354 16.4444C172.972 16.4444 203.414 28.4349 226.539 49.9972C249.664 71.5596 263.751 101.089 265.959 132.63C268.168 164.171 258.333 195.375 238.438 219.95C218.543 244.524 190.07 260.64 158.76 265.045Z" fill="#DC3232"/>
<path d="M173.535 180.677H109.175C104.842 180.661 100.675 179.008 97.508 176.05C94.3414 173.092 92.4092 169.047 92.0982 164.724L86.9176 88.3312C86.7559 85.9938 87.0769 83.6481 87.8607 81.4401C88.6444 79.2321 89.8741 77.209 91.4733 75.4967C93.0725 73.7844 95.007 72.4195 97.1564 71.4869C99.3057 70.5543 101.624 70.0738 103.967 70.0757H178.743C181.086 70.0738 183.404 70.5543 185.554 71.4869C187.703 72.4195 189.637 73.7844 191.237 75.4967C192.836 77.209 194.066 79.2321 194.849 81.4401C195.633 83.6481 195.954 85.9938 195.792 88.3312L190.612 164.724C190.301 169.047 188.369 173.092 185.202 176.05C182.035 179.008 177.868 180.661 173.535 180.677ZM103.967 81.0399C103.124 81.0368 102.289 81.208 101.516 81.543C100.742 81.8779 100.046 82.3693 99.4716 82.9861C98.8975 83.5995 98.4572 84.3257 98.1787 85.1185C97.9003 85.9113 97.7899 86.7533 97.8544 87.5911L103.035 163.984C103.152 165.536 103.849 166.986 104.986 168.048C106.124 169.109 107.619 169.704 109.175 169.713H173.535C175.088 169.703 176.58 169.108 177.713 168.046C178.846 166.984 179.537 165.533 179.647 163.984L184.856 87.5911C184.912 86.7531 184.795 85.9126 184.514 85.1214C184.232 84.3302 183.792 83.6051 183.219 82.9911C182.646 82.3771 181.953 81.8871 181.183 81.5515C180.413 81.2159 179.583 81.0418 178.743 81.0399H103.967Z" fill="#DC3232"/>
<path d="M120.001 155.759C118.548 155.759 117.153 155.181 116.125 154.153C115.097 153.125 114.519 151.731 114.519 150.277V96.1958C114.519 94.7419 115.097 93.3475 116.125 92.3194C117.153 91.2913 118.548 90.7137 120.001 90.7137C121.455 90.7137 122.85 91.2913 123.878 92.3194C124.906 93.3475 125.484 94.7419 125.484 96.1958V150.195C125.494 150.921 125.361 151.643 125.09 152.318C124.82 152.992 124.417 153.607 123.907 154.124C123.397 154.642 122.789 155.053 122.119 155.334C121.448 155.615 120.728 155.759 120.001 155.759Z" fill="#DC3232"/>
<path d="M141.356 158.665C139.902 158.665 138.507 158.088 137.479 157.06C136.451 156.032 135.874 154.637 135.874 153.183V93.4556C135.874 92.0017 136.451 90.6074 137.479 89.5793C138.507 88.5512 139.902 87.9735 141.356 87.9735C142.81 87.9735 144.204 88.5512 145.232 89.5793C146.26 90.6074 146.838 92.0017 146.838 93.4556V153.265C146.816 154.705 146.229 156.078 145.203 157.089C144.178 158.099 142.795 158.665 141.356 158.665Z" fill="#DC3232"/>
<path d="M162.598 155.759C161.144 155.759 159.75 155.181 158.722 154.153C157.694 153.125 157.116 151.731 157.116 150.277V96.1958C157.116 94.7419 157.694 93.3475 158.722 92.3194C159.75 91.2913 161.144 90.7137 162.598 90.7137C164.052 90.7137 165.447 91.2913 166.475 92.3194C167.503 93.3475 168.081 94.7419 168.081 96.1958V150.195C168.091 150.921 167.958 151.643 167.687 152.318C167.416 152.992 167.014 153.607 166.504 154.124C165.994 154.642 165.386 155.053 164.716 155.334C164.045 155.615 163.325 155.759 162.598 155.759Z" fill="#DC3232"/>
<path d="M157.992 265.102C156.538 265.102 155.144 264.524 154.116 263.496C153.088 262.468 152.51 261.074 152.51 259.62V225.027C152.503 223.438 151.868 221.915 150.744 220.791C149.62 219.667 148.097 219.032 146.507 219.025H136.201C134.611 219.032 133.088 219.667 131.964 220.791C130.84 221.915 130.205 223.438 130.198 225.027V259.592C130.198 261.046 129.62 262.441 128.592 263.469C127.564 264.497 126.17 265.074 124.716 265.074C123.262 265.074 121.867 264.497 120.839 263.469C119.811 262.441 119.234 261.046 119.234 259.592V225.027C119.234 220.528 121.021 216.212 124.203 213.03C127.385 209.848 131.701 208.06 136.201 208.06H146.507C151.007 208.06 155.323 209.848 158.505 213.03C161.687 216.212 163.474 220.528 163.474 225.027V259.592C163.478 260.314 163.339 261.03 163.065 261.698C162.791 262.367 162.388 262.974 161.878 263.486C161.369 263.998 160.763 264.405 160.096 264.682C159.43 264.959 158.714 265.102 157.992 265.102Z" fill="#DC3232"/>
<path d="M141.356 219.052C139.902 219.052 138.507 218.474 137.479 217.446C136.451 216.418 135.874 215.023 135.874 213.57V178.813C135.874 177.359 136.451 175.965 137.479 174.936C138.507 173.908 139.902 173.331 141.356 173.331C142.81 173.331 144.204 173.908 145.232 174.936C146.26 175.965 146.838 177.359 146.838 178.813V213.57C146.838 215.023 146.26 216.418 145.232 217.446C144.204 218.474 142.81 219.052 141.356 219.052Z" fill="#DC3232"/>
</g>
</svg>
