<svg width="293" height="293" viewBox="0 0 293 293" fill="none" xmlns="http://www.w3.org/2000/svg">
<mask id="mask0_2_35" style="mask-type:alpha" maskUnits="userSpaceOnUse" x="0" y="0" width="293" height="293">
<circle cx="146.5" cy="146.5" r="146.5" fill="#D9D9D9"/>
</mask>
<g mask="url(#mask0_2_35)">
<path d="M117.718 138.867C75.1832 117.51 52.3831 81.5837 63.5036 53.4388C69.0742 39.3249 85.5374 28.605 101.814 28.3567C102.955 28.3357 104.095 28.3771 105.231 28.4809C132.152 30.7573 150.603 64.1173 153.606 115.523L154.062 123.636L124.801 142.406L117.718 138.867Z" fill="#85D6EB"/>
<path d="M117.532 138.888C75.0796 117.427 52.3831 81.4182 63.6899 53.294C69.2812 39.2629 85.7445 28.4602 101.959 28.3361C103.141 28.3219 104.323 28.3703 105.5 28.481C132.421 30.8402 150.748 64.2415 153.585 115.668L154.02 123.78L124.697 142.406L117.532 138.888Z" fill="black"/>
<path d="M134.388 127.94L131.924 120.428C117.097 75.2304 126.519 33.7373 154.351 21.7757C158.666 19.9625 163.297 19.0201 167.977 19.0026C174.286 18.9346 180.537 20.2098 186.314 22.7432C192.091 25.2767 197.262 29.0103 201.484 33.6959C218.775 54.3907 208.173 90.9791 173.776 129.327L168.35 135.369L134.388 127.94Z" fill="black"/>
<path d="M151.535 124.588L155.118 117.531C172.388 83.4051 199.972 61.1789 225.402 60.8685C230.656 60.7584 235.879 61.694 240.768 63.6209C255.968 69.6845 267.109 88.4546 265.618 105.404C263.257 132.307 229.813 150.643 178.352 153.457L170.235 153.912L151.535 124.588Z" fill="black"/>
<path d="M236.73 209.602C216.332 209.85 190.716 197.185 164.644 173.8L158.597 168.378L166.031 134.355L173.569 131.893C186.352 127.583 199.717 125.238 213.205 124.939C242.197 124.587 264.189 135.576 272.266 154.305C278.727 169.33 273.342 190.459 260.275 201.406C253.618 206.788 245.293 209.686 236.73 209.602V209.602Z" fill="black"/>
<path d="M192.206 265.685C191.026 265.685 189.825 265.685 188.665 265.54C161.744 263.18 143.417 229.758 140.58 178.353L140.145 170.282L169.468 151.656L176.551 155.216C219.003 176.697 241.679 212.706 230.393 240.83C224.884 254.758 208.442 265.478 192.206 265.685Z" fill="black"/>
<path d="M126.105 274.997C119.791 275.064 113.535 273.782 107.756 271.238C101.978 268.693 96.8101 264.944 92.5987 260.242C75.3071 239.547 85.9098 202.959 120.307 164.611L125.732 158.548L159.694 166.143L162.158 173.676C176.986 218.873 167.563 260.346 139.731 272.307C135.411 274.092 130.78 275.006 126.105 274.997V274.997Z" fill="black"/>
<path d="M68.7012 233.153C63.4204 233.228 58.177 232.257 53.2734 230.297C38.0734 224.254 26.9322 205.463 28.4232 188.535C30.784 161.632 64.2282 143.296 115.689 140.482L123.806 140.026L142.444 169.351L138.924 176.49C121.653 210.616 94.0691 232.842 68.7012 233.153Z" fill="black"/>
<path d="M80.7949 169.061C51.803 169.413 29.8106 158.445 21.7343 139.695C15.2733 124.691 20.6575 103.562 33.7245 92.6144C40.4127 87.2366 48.7694 84.3601 57.3529 84.4813C77.7508 84.233 103.367 96.8982 129.439 120.283L135.486 125.705L127.969 159.645L120.472 162.128C107.677 166.446 94.2969 168.784 80.7949 169.061V169.061Z" fill="black"/>
<path d="M123.806 126.492C86.1376 107.432 68.846 77.6728 76.5288 58.5301C80.4634 48.6587 93.634 41.4569 104.195 42.3882C121.818 43.9403 137.101 70.7193 139.607 116.517L123.806 126.492Z" fill="white"/>
<path d="M145.136 116.082C131.965 75.9965 140.808 42.74 159.839 34.5448C169.613 30.4059 184.006 34.5448 190.902 42.6986C202.271 56.2537 194.132 85.9714 163.504 120.138L145.136 116.082Z" fill="white"/>
<path d="M167.564 123.801C186.74 86.1365 216.415 68.877 235.674 76.5341C245.552 80.4661 252.738 93.628 251.806 104.182C250.253 121.794 223.477 137.066 177.649 139.591L167.564 123.801Z" fill="white"/>
<path d="M177.98 145.096C218.113 131.955 251.391 140.771 259.571 159.81C263.713 169.557 259.571 183.961 251.433 190.749C237.869 202.11 208.11 193.977 173.921 163.39L177.98 145.096Z" fill="white"/>
<path d="M170.276 167.509C207.945 186.569 225.236 216.328 217.554 235.574C213.619 245.445 200.448 252.626 189.887 251.695C172.264 250.143 156.981 223.385 154.476 177.587L170.276 167.509Z" fill="white"/>
<path d="M148.946 177.918C162.117 218.025 153.274 251.281 134.243 259.456C124.469 263.594 110.076 259.456 103.18 251.322C91.8114 237.767 99.9499 208.05 130.578 173.883L148.946 177.918Z" fill="white"/>
<path d="M126.519 170.282C107.447 207.946 77.6678 225.206 58.4089 217.549C48.5309 213.596 41.3451 200.434 42.277 189.9C43.8301 172.269 70.6062 157.016 116.455 154.492L126.519 170.282Z" fill="white"/>
<path d="M116.103 148.925C75.9698 162.066 42.6913 153.25 34.5115 134.211C30.3698 124.443 34.5115 110.06 42.6499 103.169C56.2139 91.8071 85.972 99.9401 120.162 130.548L116.103 148.925Z" fill="white"/>
<path d="M147.041 179.76C165.146 179.76 179.823 165.093 179.823 147C179.823 128.908 165.146 114.24 147.041 114.24C128.936 114.24 114.26 128.908 114.26 147C114.26 165.093 128.936 179.76 147.041 179.76Z" fill="black"/>
<path d="M147.041 167.84C158.559 167.84 167.895 158.509 167.895 147C167.895 135.491 158.559 126.16 147.041 126.16C135.524 126.16 126.188 135.491 126.188 147C126.188 158.509 135.524 167.84 147.041 167.84Z" fill="white"/>
<path d="M118.402 101.492C117.279 102.206 115.981 102.596 114.65 102.618C113.32 102.64 112.009 102.293 110.864 101.616C96.368 92.9038 89.9069 80.7146 93.1374 72.6436C94.3092 70.3211 96.1306 68.3886 98.3804 67.0807C100.63 65.7729 103.212 65.146 105.811 65.2762C113.287 65.9178 119.851 76.4928 121.694 94.7456C121.815 96.0634 121.571 97.389 120.991 98.5784C120.41 99.7677 119.515 100.775 118.402 101.492V101.492Z" fill="black"/>
<path d="M158.99 94.5593C157.697 94.2679 156.509 93.6246 155.559 92.7006C154.609 91.7765 153.933 90.6077 153.606 89.3235C149.464 72.9332 153.606 59.7507 161.6 56.2119C164.071 55.3955 166.727 55.3129 169.244 55.974C171.762 56.6352 174.034 58.0117 175.785 59.9369C180.61 65.69 177.856 77.8172 166.155 92.0138C165.31 93.0396 164.197 93.8123 162.94 94.2468C161.683 94.6813 160.331 94.7608 159.032 94.4765L158.99 94.5593Z" fill="black"/>
<path d="M192.6 118.359C191.885 117.237 191.495 115.939 191.473 114.61C191.451 113.28 191.798 111.97 192.476 110.826C201.173 96.3393 213.37 89.8825 221.467 93.1316C223.79 94.3003 225.725 96.1164 227.037 98.3604C228.349 100.604 228.982 103.18 228.86 105.776C228.198 113.268 217.616 119.807 199.371 121.649C198.045 121.784 196.708 121.548 195.508 120.967C194.309 120.386 193.294 119.483 192.579 118.359H192.6Z" fill="black"/>
<path d="M199.517 158.941C199.805 157.645 200.447 156.454 201.372 155.5C202.297 154.546 203.468 153.868 204.756 153.54C221.178 149.401 234.348 153.54 237.889 161.507C238.706 163.977 238.789 166.631 238.127 169.147C237.466 171.663 236.088 173.934 234.162 175.683C228.405 180.505 216.291 177.753 202.085 166.06C201.051 165.22 200.271 164.11 199.832 162.853C199.393 161.596 199.313 160.241 199.599 158.941H199.517Z" fill="black"/>
<path d="M175.702 192.528C176.824 191.814 178.123 191.425 179.453 191.403C180.784 191.381 182.094 191.727 183.24 192.404C197.736 201.096 204.197 213.285 200.966 221.377C199.799 223.705 197.98 225.643 195.729 226.955C193.479 228.267 190.895 228.896 188.292 228.765C180.817 228.227 174.314 217.548 172.409 199.254C172.281 197.93 172.521 196.595 173.101 195.398C173.682 194.201 174.582 193.186 175.702 192.466V192.528Z" fill="black"/>
<path d="M135.092 199.461C136.393 199.746 137.59 200.386 138.548 201.311C139.506 202.235 140.188 203.408 140.518 204.697C144.66 221.088 140.518 234.27 132.524 237.809C130.053 238.628 127.397 238.712 124.878 238.051C122.36 237.389 120.088 236.011 118.339 234.084C113.514 228.331 116.372 216.224 127.969 202.028C128.811 200.998 129.923 200.223 131.181 199.788C132.439 199.353 133.793 199.276 135.092 199.565V199.461Z" fill="black"/>
<path d="M101.483 175.642C102.197 176.763 102.587 178.061 102.609 179.391C102.631 180.72 102.284 182.03 101.607 183.175C92.9095 197.661 80.7122 204.118 72.6152 200.889C70.2906 199.717 68.3555 197.897 67.0436 195.65C65.7317 193.402 65.0991 190.823 65.2223 188.224C65.8849 180.753 76.467 174.193 94.7111 172.372C96.0348 172.239 97.3693 172.475 98.5678 173.052C99.7662 173.628 100.782 174.525 101.504 175.642H101.483Z" fill="black"/>
<path d="M94.566 135.101C94.2812 136.383 93.6499 137.563 92.7407 138.511C91.8315 139.46 90.6794 140.141 89.4096 140.481C72.9878 144.62 59.8172 140.481 56.2761 132.493C55.4582 130.026 55.3751 127.375 56.0369 124.862C56.6986 122.349 58.0767 120.083 60.0036 118.338C65.7605 113.516 77.875 116.268 92.081 127.94C93.1148 128.785 93.8942 129.899 94.3329 131.159C94.7715 132.419 94.8522 133.777 94.566 135.08V135.101Z" fill="black"/>
</g>
</svg>
