<svg clip-rule="evenodd" fill-rule="evenodd" stroke-linejoin="round" stroke-miterlimit="2" viewBox="0 0 560 400" xmlns="http://www.w3.org/2000/svg"><g transform="matrix(2.76923 0 0 2.76923 99.4018 140.462)"><path d="m11.594 10.368c6.443 0 11.286 5.159 11.286 11.969 0 3.164-1.119 6.099-3.152 8.3-2.102 2.247-4.981 3.486-8.134 3.486-2.97 0-5.643-1.124-7.608-3.165l-.046.94v9.883c0 .711-.48 1.192-1.188 1.192h-1.348c-.708 0-1.188-.481-1.188-1.192v-29.785c0-.688.48-1.192 1.188-1.192h1.302c.64 0 1.12.458 1.188 1.146l.069 1.697c1.942-2.11 4.638-3.279 7.631-3.279zm-.183 20.292c4.478 0 7.837-3.577 7.837-8.346 0-2.362-.8-4.517-2.239-6.076-1.417-1.559-3.427-2.408-5.598-2.408-4.341 0-7.745 3.715-7.745 8.484 0 4.677 3.404 8.346 7.745 8.346zm18.186-30.61c.709 0 1.189.481 1.189 1.192v31.39c0 .711-.48 1.193-1.189 1.193h-1.348c-.708 0-1.188-.482-1.188-1.193v-31.39c0-.711.48-1.192 1.188-1.192zm26.892 10.754c.708 0 1.21.504 1.187 1.215v20.636c0 .711-.479 1.192-1.187 1.192h-1.303c-.639 0-1.119-.458-1.188-1.146l-.091-1.72c-1.965 2.041-4.638 3.165-7.608 3.165-3.153 0-6.032-1.239-8.134-3.486-2.033-2.201-3.153-5.136-3.153-8.3 0-6.856 4.844-12.015 11.287-12.015 2.993 0 5.689 1.169 7.631 3.279l.068-1.651c.069-.734.526-1.169 1.188-1.169zm-10.008 19.856c4.341 0 7.746-3.668 7.746-8.346 0-4.746-3.405-8.484-7.746-8.484-2.17 0-4.158.849-5.597 2.408s-2.239 3.714-2.239 6.076c0 4.746 3.381 8.346 7.836 8.346zm24.47-10.157c3.473 1.261 7.425 2.659 7.448 7.245 0 4.036-4.113 6.535-7.905 6.535-4.775 0-7.654-2.958-8.431-3.852-.617-.734-.274-1.33-.091-1.536l.822-.917c.206-.276.457-.413.731-.436.389-.023.709.252.96.504.457.459 2.787 2.752 5.986 2.752 2.582 0 4.25-1.215 4.25-3.073 0-2.338-2.559-3.256-5.278-4.242-3.496-1.284-7.106-2.591-7.106-6.855 0-3.623 3.199-6.352 7.449-6.352 2.147 0 5.232 1.078 7.288 3.508.228.253.525.826-.023 1.582l-.571.665c-.252.344-.571.413-.754.436-.252.023-.617-.046-1.005-.436-1.531-1.421-2.925-2.315-5.073-2.315-2.741 0-3.724 1.582-3.724 2.934 0 2.064 2.445 2.935 5.027 3.853zm22.002-9.699c.685 0 1.188.504 1.188 1.215v.986c0 .711-.48 1.192-1.188 1.192h-4.661v18.412c0 .711-.48 1.193-1.188 1.193h-1.348c-.709 0-1.188-.482-1.188-1.193v-18.435h-3.062c-.708 0-1.188-.481-1.188-1.192v-.986c0-.711.48-1.192 1.188-1.192h3.062v-9.585c0-.711.479-1.192 1.188-1.192h1.348c.708 0 1.188.481 1.188 1.192v9.585zm7.036 0c.709 0 1.188.504 1.188 1.192v20.636c0 .711-.479 1.193-1.188 1.193h-1.348c-.708 0-1.188-.482-1.188-1.193v-20.636c0-.711.48-1.192 1.188-1.192zm27.851 18.389 1.851 1.857c.479.482.479 1.261 0 1.743l-.891.894c-.48.481-1.257.481-1.737 0l-1.85-1.857c-2.057 1.536-4.593 2.43-7.334 2.43-6.809 0-12.338-5.549-12.338-12.382 0-6.832 5.529-12.381 12.338-12.381 6.808 0 12.337 5.549 12.337 12.381 0 2.752-.891 5.274-2.376 7.315zm-9.961 1.123c1.645 0 3.198-.481 4.478-1.33l-2.034-2.04c-.48-.482-.48-1.261 0-1.743l.891-.894c.48-.482 1.257-.482 1.737 0l2.033 2.041c.823-1.284 1.28-2.821 1.28-4.449 0-4.654-3.747-8.415-8.385-8.415s-8.385 3.761-8.385 8.415c0 4.655 3.747 8.415 8.385 8.415z" fill="#111a27"/><path d="m99.373.027c-1.394 0-2.399.986-2.399 2.362 0 1.398 1.005 2.407 2.399 2.407 1.325 0 2.307-1.032 2.307-2.407 0-1.353-1.005-2.362-2.307-2.362z" fill="#00aeef" fill-rule="nonzero"/></g></svg>